# This file uses centimeters as units for non-parametric coordinates.

mtllib nye-main-room-center-wall.mtl
g default
v 2.389905 10.136556 -0.500000
v 2.142730 10.749999 -0.500000
v 1.749532 11.276776 -0.500000
v 1.237106 11.680985 -0.500000
v 0.640373 11.935082 -0.500000
v 0.000000 12.000000 -0.500000
v -0.640373 11.935082 -0.500000
v -1.237106 11.680987 -0.500000
v -1.749532 11.276776 -0.500000
v -2.142731 10.749999 -0.500000
v -2.389905 10.136556 -0.500000
v -2.500000 9.478247 -0.500000
v 2.500000 9.478247 -0.500000
v 2.389905 10.136556 0.500000
v 2.142730 10.749999 0.500000
v 1.749532 11.276776 0.500000
v 1.237106 11.680985 0.500000
v 0.640373 11.935082 0.500000
v 0.000000 12.000000 0.500000
v -0.640373 11.935082 0.500000
v -1.237106 11.680987 0.500000
v -1.749532 11.276776 0.500000
v -2.142731 10.749999 0.500000
v -2.389905 10.136556 0.500000
v -2.500000 9.478247 0.500000
v 2.500000 9.478247 0.500000
v 0.000000 9.478247 -0.500000
v 0.000000 9.478247 0.500000
v -2.500000 0.000000 0.500000
v 0.000000 0.000000 0.500000
v 2.500000 0.000000 0.500000
v -2.500000 0.000000 -0.500000
v 0.000000 0.000000 -0.500000
v 2.500000 0.000000 -0.500000
vt 0.982963 0.903324
vt 0.933012 0.934783
vt 0.933012 0.934783
vt 0.982963 0.903324
vt 0.853553 0.961797
vt 0.853553 0.961797
vt 0.750000 0.982525
vt 0.750000 0.982525
vt 0.629410 0.995555
vt 0.629410 0.995555
vt 0.500000 1.000000
vt 0.500000 1.000000
vt 0.370591 0.995555
vt 0.370591 0.995555
vt 0.250000 0.982525
vt 0.250000 0.982525
vt 0.146447 0.961797
vt 0.146447 0.961797
vt 0.066987 0.934783
vt 0.066987 0.934783
vt 0.017037 0.903324
vt 0.017037 0.903324
vt 0.000000 0.869565
vt 0.000000 0.869565
vt 1.000000 0.869565
vt 1.000000 0.869565
vt 0.500000 0.869565
vt 0.500000 0.869565
vt 0.000000 0.000000
vt 0.500000 0.000000
vt 1.000000 0.000000
vt 0.500000 0.000000
vt 0.000000 0.000000
vt 1.000000 0.000000
vn 0.962732 0.270458 0.000000
vn 0.871903 0.489680 0.000000
vn 0.871903 0.489680 0.000000
vn 0.962732 0.270458 0.000000
vn 0.716803 0.697276 0.000000
vn 0.716803 0.697276 0.000000
vn 0.510392 0.859942 0.000000
vn 0.510392 0.859942 0.000000
vn 0.249703 0.968323 0.000000
vn 0.249703 0.968323 0.000000
vn -0.000000 1.000000 0.000000
vn -0.000000 1.000000 0.000000
vn -0.249701 0.968323 0.000000
vn -0.249701 0.968323 0.000000
vn -0.510391 0.859942 0.000000
vn -0.510391 0.859942 0.000000
vn -0.716803 0.697275 0.000000
vn -0.716803 0.697275 0.000000
vn -0.871902 0.489680 0.000000
vn -0.871902 0.489680 0.000000
vn -0.962732 0.270457 0.000000
vn -0.962732 0.270457 0.000000
vn -0.986302 0.164948 0.000000
vn -0.986302 0.164948 0.000000
vn 0.986302 0.164948 0.000000
vn 0.986302 0.164948 0.000000
vn 0.000000 0.000000 -1.000000
vn 0.000000 0.000000 -1.000000
vn 0.000000 0.000000 -1.000000
vn 0.000000 0.000000 -1.000000
vn 0.000000 0.000000 -1.000000
vn 0.000000 0.000000 -1.000000
vn 0.000000 0.000000 -1.000000
vn 0.000000 0.000000 -1.000000
vn 0.000000 0.000000 -1.000000
vn 0.000000 0.000000 -1.000000
vn 0.000000 0.000000 -1.000000
vn 0.000000 0.000000 -1.000000
vn 0.000000 0.000000 -1.000000
vn 0.000000 0.000000 -1.000000
vn 0.000000 0.000000 1.000000
vn 0.000000 0.000000 1.000000
vn 0.000000 0.000000 1.000000
vn 0.000000 0.000000 1.000000
vn 0.000000 0.000000 1.000000
vn 0.000000 0.000000 1.000000
vn 0.000000 0.000000 1.000000
vn 0.000000 0.000000 1.000000
vn 0.000000 0.000000 1.000000
vn 0.000000 0.000000 1.000000
vn 0.000000 0.000000 1.000000
vn 0.000000 0.000000 1.000000
vn 0.000000 0.000000 1.000000
vn 0.000000 0.000000 1.000000
vn 0.000000 0.000000 1.000000
vn 0.000000 0.000000 1.000000
vn 0.000000 0.000000 1.000000
vn 0.000000 0.000000 1.000000
vn 0.000000 0.000000 1.000000
vn 0.000000 0.000000 1.000000
vn 0.000000 1.000000 0.000000
vn 0.000000 1.000000 0.000000
vn 0.000000 1.000000 0.000000
vn 0.000000 1.000000 0.000000
vn 0.000000 1.000000 0.000000
vn 0.000000 1.000000 0.000000
vn 0.000000 0.000000 -1.000000
vn 0.000000 0.000000 -1.000000
vn 0.000000 0.000000 -1.000000
vn 0.000000 0.000000 -1.000000
vn 0.000000 0.000000 -1.000000
vn 0.000000 0.000000 -1.000000
vn 0.000000 -1.000000 0.000000
vn 0.000000 -1.000000 0.000000
vn 0.000000 -1.000000 0.000000
vn 0.000000 -1.000000 0.000000
vn 0.000000 -1.000000 0.000000
vn 0.000000 -1.000000 0.000000
vn 1.000000 0.000000 0.000000
vn 1.000000 0.000000 0.000000
vn 1.000000 0.000000 0.000000
vn 1.000000 0.000000 0.000000
vn -1.000000 0.000000 0.000000
vn -1.000000 0.000000 0.000000
vn -1.000000 0.000000 0.000000
vn -1.000000 0.000000 0.000000
s 1
g centerArch
usemtl initialShadingGroup
f 1/1/1 2/2/2 15/3/3 14/4/4
f 2/2/2 3/5/5 16/6/6 15/3/3
f 3/5/5 4/7/7 17/8/8 16/6/6
f 4/7/7 5/9/9 18/10/10 17/8/8
f 5/9/9 6/11/11 19/12/12 18/10/10
f 6/11/11 7/13/13 20/14/14 19/12/12
f 7/13/13 8/15/15 21/16/16 20/14/14
f 8/15/15 9/17/17 22/18/18 21/16/16
f 9/17/17 10/19/19 23/20/20 22/18/18
f 10/19/19 11/21/21 24/22/22 23/20/20
f 11/21/21 12/23/23 25/24/24 24/22/22
f 13/25/25 1/1/1 14/4/4 26/26/26
s 2
f 2/2/27 1/1/28 27/27/29
f 3/5/30 2/2/27 27/27/29
f 4/7/31 3/5/30 27/27/29
f 5/9/32 4/7/31 27/27/29
f 6/11/33 5/9/32 27/27/29
f 7/13/34 6/11/33 27/27/29
f 8/15/35 7/13/34 27/27/29
f 9/17/36 8/15/35 27/27/29
f 10/19/37 9/17/36 27/27/29
f 11/21/38 10/19/37 27/27/29
f 12/23/39 11/21/38 27/27/29
f 1/1/28 13/25/40 27/27/29
s 3
f 14/4/41 15/3/42 28/28/43
f 15/3/42 16/6/44 28/28/43
f 16/6/44 17/8/45 28/28/43
f 17/8/45 18/10/46 28/28/43
f 18/10/46 19/12/47 28/28/43
f 19/12/47 20/14/48 28/28/43
f 20/14/48 21/16/49 28/28/43
f 21/16/49 22/18/50 28/28/43
f 22/18/50 23/20/51 28/28/43
f 23/20/51 24/22/52 28/28/43
f 24/22/52 25/24/53 28/28/43
f 26/26/54 14/4/41 28/28/43
s 4
f 29/29/55 30/30/56 28/28/57 25/24/58
f 30/30/56 31/31/59 26/26/60 28/28/57
s 5
f 25/24/61 28/28/62 27/27/63 12/23/64
f 28/28/62 26/26/65 13/25/66 27/27/63
s 6
f 12/23/67 27/27/68 33/32/69 32/33/70
f 27/27/68 13/25/71 34/34/72 33/32/69
s 7
f 32/33/73 33/32/74 30/30/75 29/29/76
f 33/32/74 34/34/77 31/31/78 30/30/75
s off
f 31/31/79 34/34/80 13/25/81 26/26/82
f 32/33/83 29/29/84 25/24/85 12/23/86
g default
v -7.999999 0.000000 0.500000
v -5.000001 0.000000 0.500000
v -7.999999 12.000000 0.500000
v -5.000001 12.000000 0.500000
v -7.999999 12.000000 -0.500000
v -5.000001 12.000000 -0.500000
v -7.999999 0.000000 -0.500000
v -5.000001 0.000000 -0.500000
vt 0.375000 0.000000
vt 0.625000 0.000000
vt 0.375000 0.250000
vt 0.625000 0.250000
vt 0.375000 0.500000
vt 0.625000 0.500000
vt 0.375000 0.750000
vt 0.625000 0.750000
vt 0.375000 1.000000
vt 0.625000 1.000000
vt 0.875000 0.000000
vt 0.875000 0.250000
vt 0.125000 0.000000
vt 0.125000 0.250000
vn 0.000000 0.000000 1.000000
vn 0.000000 0.000000 1.000000
vn 0.000000 0.000000 1.000000
vn 0.000000 0.000000 1.000000
vn 0.000000 1.000000 0.000000
vn 0.000000 1.000000 0.000000
vn 0.000000 1.000000 0.000000
vn 0.000000 1.000000 0.000000
vn 0.000000 0.000000 -1.000000
vn 0.000000 0.000000 -1.000000
vn 0.000000 0.000000 -1.000000
vn 0.000000 0.000000 -1.000000
vn 0.000000 -1.000000 0.000000
vn 0.000000 -1.000000 0.000000
vn 0.000000 -1.000000 0.000000
vn 0.000000 -1.000000 0.000000
vn 1.000000 0.000000 0.000000
vn 1.000000 0.000000 0.000000
vn 1.000000 0.000000 0.000000
vn 1.000000 0.000000 0.000000
vn -1.000000 0.000000 0.000000
vn -1.000000 0.000000 0.000000
vn -1.000000 0.000000 0.000000
vn -1.000000 0.000000 0.000000
s off
g firstLeftPanel
usemtl initialShadingGroup
f 35/35/87 36/36/88 38/38/89 37/37/90
f 37/37/91 38/38/92 40/40/93 39/39/94
f 39/39/95 40/40/96 42/42/97 41/41/98
f 41/41/99 42/42/100 36/44/101 35/43/102
f 36/36/103 42/45/104 40/46/105 38/38/106
f 41/47/107 35/35/108 37/37/109 39/48/110
g default
v -10.250000 0.000000 0.500000
v -8.250000 0.000000 0.500000
v -10.250000 12.000000 0.500000
v -8.250000 12.000000 0.500000
v -10.250000 12.000000 -0.500000
v -8.250000 12.000000 -0.500000
v -10.250000 0.000000 -0.500000
v -8.250000 0.000000 -0.500000
vt 0.375000 0.000000
vt 0.625000 0.000000
vt 0.375000 0.250000
vt 0.625000 0.250000
vt 0.375000 0.500000
vt 0.625000 0.500000
vt 0.375000 0.750000
vt 0.625000 0.750000
vt 0.375000 1.000000
vt 0.625000 1.000000
vt 0.875000 0.000000
vt 0.875000 0.250000
vt 0.125000 0.000000
vt 0.125000 0.250000
vn 0.000000 0.000000 1.000000
vn 0.000000 0.000000 1.000000
vn 0.000000 0.000000 1.000000
vn 0.000000 0.000000 1.000000
vn 0.000000 1.000000 0.000000
vn 0.000000 1.000000 0.000000
vn 0.000000 1.000000 0.000000
vn 0.000000 1.000000 0.000000
vn 0.000000 0.000000 -1.000000
vn 0.000000 0.000000 -1.000000
vn 0.000000 0.000000 -1.000000
vn 0.000000 0.000000 -1.000000
vn 0.000000 -1.000000 0.000000
vn 0.000000 -1.000000 0.000000
vn 0.000000 -1.000000 0.000000
vn 0.000000 -1.000000 0.000000
vn 1.000000 0.000000 0.000000
vn 1.000000 0.000000 0.000000
vn 1.000000 0.000000 0.000000
vn 1.000000 0.000000 0.000000
vn -1.000000 0.000000 0.000000
vn -1.000000 0.000000 0.000000
vn -1.000000 0.000000 0.000000
vn -1.000000 0.000000 0.000000
s off
g secondLeftColumn
usemtl initialShadingGroup
f 43/49/111 44/50/112 46/52/113 45/51/114
f 45/51/115 46/52/116 48/54/117 47/53/118
f 47/53/119 48/54/120 50/56/121 49/55/122
f 49/55/123 50/56/124 44/58/125 43/57/126
f 44/50/127 50/59/128 48/60/129 46/52/130
f 49/61/131 43/49/132 45/51/133 47/62/134
g default
v -4.750000 0.000000 0.500000
v -2.750000 0.000000 0.500000
v -4.750000 12.000000 0.500000
v -2.750000 12.000000 0.500000
v -4.750000 12.000000 -0.500000
v -2.750000 12.000000 -0.500000
v -4.750000 0.000000 -0.500000
v -2.750000 0.000000 -0.500000
vt 0.375000 0.000000
vt 0.625000 0.000000
vt 0.375000 0.250000
vt 0.625000 0.250000
vt 0.375000 0.500000
vt 0.625000 0.500000
vt 0.375000 0.750000
vt 0.625000 0.750000
vt 0.375000 1.000000
vt 0.625000 1.000000
vt 0.875000 0.000000
vt 0.875000 0.250000
vt 0.125000 0.000000
vt 0.125000 0.250000
vn 0.000000 0.000000 1.000000
vn 0.000000 0.000000 1.000000
vn 0.000000 0.000000 1.000000
vn 0.000000 0.000000 1.000000
vn 0.000000 1.000000 0.000000
vn 0.000000 1.000000 0.000000
vn 0.000000 1.000000 0.000000
vn 0.000000 1.000000 0.000000
vn 0.000000 0.000000 -1.000000
vn 0.000000 0.000000 -1.000000
vn 0.000000 0.000000 -1.000000
vn 0.000000 0.000000 -1.000000
vn 0.000000 -1.000000 0.000000
vn 0.000000 -1.000000 0.000000
vn 0.000000 -1.000000 0.000000
vn 0.000000 -1.000000 0.000000
vn 1.000000 0.000000 0.000000
vn 1.000000 0.000000 0.000000
vn 1.000000 0.000000 0.000000
vn 1.000000 0.000000 0.000000
vn -1.000000 0.000000 0.000000
vn -1.000000 0.000000 0.000000
vn -1.000000 0.000000 0.000000
vn -1.000000 0.000000 0.000000
s off
g firstLeftColumn
usemtl initialShadingGroup
f 51/63/135 52/64/136 54/66/137 53/65/138
f 53/65/139 54/66/140 56/68/141 55/67/142
f 55/67/143 56/68/144 58/70/145 57/69/146
f 57/69/147 58/70/148 52/72/149 51/71/150
f 52/64/151 58/73/152 56/74/153 54/66/154
f 57/75/155 51/63/156 53/65/157 55/76/158
g default
v 2.750000 0.000000 0.500000
v 4.750000 0.000000 0.500000
v 2.750000 12.000000 0.500000
v 4.750000 12.000000 0.500000
v 2.750000 12.000000 -0.500000
v 4.750000 12.000000 -0.500000
v 2.750000 0.000000 -0.500000
v 4.750000 0.000000 -0.500000
vt 0.375000 0.000000
vt 0.625000 0.000000
vt 0.375000 0.250000
vt 0.625000 0.250000
vt 0.375000 0.500000
vt 0.625000 0.500000
vt 0.375000 0.750000
vt 0.625000 0.750000
vt 0.375000 1.000000
vt 0.625000 1.000000
vt 0.875000 0.000000
vt 0.875000 0.250000
vt 0.125000 0.000000
vt 0.125000 0.250000
vn 0.000000 0.000000 1.000000
vn 0.000000 0.000000 1.000000
vn 0.000000 0.000000 1.000000
vn 0.000000 0.000000 1.000000
vn 0.000000 1.000000 0.000000
vn 0.000000 1.000000 0.000000
vn 0.000000 1.000000 0.000000
vn 0.000000 1.000000 0.000000
vn 0.000000 0.000000 -1.000000
vn 0.000000 0.000000 -1.000000
vn 0.000000 0.000000 -1.000000
vn 0.000000 0.000000 -1.000000
vn 0.000000 -1.000000 0.000000
vn 0.000000 -1.000000 0.000000
vn 0.000000 -1.000000 0.000000
vn 0.000000 -1.000000 0.000000
vn 1.000000 0.000000 0.000000
vn 1.000000 0.000000 0.000000
vn 1.000000 0.000000 0.000000
vn 1.000000 0.000000 0.000000
vn -1.000000 0.000000 0.000000
vn -1.000000 0.000000 0.000000
vn -1.000000 0.000000 0.000000
vn -1.000000 0.000000 0.000000
s off
g firstRightColumn
usemtl initialShadingGroup
f 59/77/159 60/78/160 62/80/161 61/79/162
f 61/79/163 62/80/164 64/82/165 63/81/166
f 63/81/167 64/82/168 66/84/169 65/83/170
f 65/83/171 66/84/172 60/86/173 59/85/174
f 60/78/175 66/87/176 64/88/177 62/80/178
f 65/89/179 59/77/180 61/79/181 63/90/182
g default
v 5.000001 0.000000 0.500000
v 7.999999 0.000000 0.500000
v 5.000001 12.000000 0.500000
v 7.999999 12.000000 0.500000
v 5.000001 12.000000 -0.500000
v 7.999999 12.000000 -0.500000
v 5.000001 0.000000 -0.500000
v 7.999999 0.000000 -0.500000
vt 0.375000 0.000000
vt 0.625000 0.000000
vt 0.375000 0.250000
vt 0.625000 0.250000
vt 0.375000 0.500000
vt 0.625000 0.500000
vt 0.375000 0.750000
vt 0.625000 0.750000
vt 0.375000 1.000000
vt 0.625000 1.000000
vt 0.875000 0.000000
vt 0.875000 0.250000
vt 0.125000 0.000000
vt 0.125000 0.250000
vn 0.000000 0.000000 1.000000
vn 0.000000 0.000000 1.000000
vn 0.000000 0.000000 1.000000
vn 0.000000 0.000000 1.000000
vn 0.000000 1.000000 0.000000
vn 0.000000 1.000000 0.000000
vn 0.000000 1.000000 0.000000
vn 0.000000 1.000000 0.000000
vn 0.000000 0.000000 -1.000000
vn 0.000000 0.000000 -1.000000
vn 0.000000 0.000000 -1.000000
vn 0.000000 0.000000 -1.000000
vn 0.000000 -1.000000 0.000000
vn 0.000000 -1.000000 0.000000
vn 0.000000 -1.000000 0.000000
vn 0.000000 -1.000000 0.000000
vn 1.000000 0.000000 0.000000
vn 1.000000 0.000000 0.000000
vn 1.000000 0.000000 0.000000
vn 1.000000 0.000000 0.000000
vn -1.000000 0.000000 0.000000
vn -1.000000 0.000000 0.000000
vn -1.000000 0.000000 0.000000
vn -1.000000 0.000000 0.000000
s off
g firstRightPanel
usemtl initialShadingGroup
f 67/91/183 68/92/184 70/94/185 69/93/186
f 69/93/187 70/94/188 72/96/189 71/95/190
f 71/95/191 72/96/192 74/98/193 73/97/194
f 73/97/195 74/98/196 68/100/197 67/99/198
f 68/92/199 74/101/200 72/102/201 70/94/202
f 73/103/203 67/91/204 69/93/205 71/104/206
g default
v 8.250000 0.000000 0.500000
v 10.250000 0.000000 0.500000
v 8.250000 12.000000 0.500000
v 10.250000 12.000000 0.500000
v 8.250000 12.000000 -0.500000
v 10.250000 12.000000 -0.500000
v 8.250000 0.000000 -0.500000
v 10.250000 0.000000 -0.500000
vt 0.375000 0.000000
vt 0.625000 0.000000
vt 0.375000 0.250000
vt 0.625000 0.250000
vt 0.375000 0.500000
vt 0.625000 0.500000
vt 0.375000 0.750000
vt 0.625000 0.750000
vt 0.375000 1.000000
vt 0.625000 1.000000
vt 0.875000 0.000000
vt 0.875000 0.250000
vt 0.125000 0.000000
vt 0.125000 0.250000
vn 0.000000 0.000000 1.000000
vn 0.000000 0.000000 1.000000
vn 0.000000 0.000000 1.000000
vn 0.000000 0.000000 1.000000
vn 0.000000 1.000000 0.000000
vn 0.000000 1.000000 0.000000
vn 0.000000 1.000000 0.000000
vn 0.000000 1.000000 0.000000
vn 0.000000 0.000000 -1.000000
vn 0.000000 0.000000 -1.000000
vn 0.000000 0.000000 -1.000000
vn 0.000000 0.000000 -1.000000
vn 0.000000 -1.000000 0.000000
vn 0.000000 -1.000000 0.000000
vn 0.000000 -1.000000 0.000000
vn 0.000000 -1.000000 0.000000
vn 1.000000 0.000000 0.000000
vn 1.000000 0.000000 0.000000
vn 1.000000 0.000000 0.000000
vn 1.000000 0.000000 0.000000
vn -1.000000 0.000000 0.000000
vn -1.000000 0.000000 0.000000
vn -1.000000 0.000000 0.000000
vn -1.000000 0.000000 0.000000
s off
g secondRightColumn
usemtl initialShadingGroup
f 75/105/207 76/106/208 78/108/209 77/107/210
f 77/107/211 78/108/212 80/110/213 79/109/214
f 79/109/215 80/110/216 82/112/217 81/111/218
f 81/111/219 82/112/220 76/114/221 75/113/222
f 76/106/223 82/115/224 80/116/225 78/108/226
f 81/117/227 75/105/228 77/107/229 79/118/230
