# This file uses centimeters as units for non-parametric coordinates.

mtllib nye-main-room-center-wall.mtl
g default
v -10.250000 0.000000 0.500000
v -8.250000 0.000000 0.500000
v -10.250000 12.000000 0.500000
v -8.250000 12.000000 0.500000
v -10.250000 12.000000 -0.500000
v -8.250000 12.000000 -0.500000
v -10.250000 0.000000 -0.500000
v -8.250000 0.000000 -0.500000
vt 0.375000 0.000000
vt 0.625000 0.000000
vt 0.375000 0.250000
vt 0.625000 0.250000
vt 0.375000 0.500000
vt 0.625000 0.500000
vt 0.375000 0.750000
vt 0.625000 0.750000
vt 0.375000 1.000000
vt 0.625000 1.000000
vt 0.875000 0.000000
vt 0.875000 0.250000
vt 0.125000 0.000000
vt 0.125000 0.250000
vn 0.000000 0.000000 1.000000
vn 0.000000 0.000000 1.000000
vn 0.000000 0.000000 1.000000
vn 0.000000 0.000000 1.000000
vn 0.000000 1.000000 0.000000
vn 0.000000 1.000000 0.000000
vn 0.000000 1.000000 0.000000
vn 0.000000 1.000000 0.000000
vn 0.000000 0.000000 -1.000000
vn 0.000000 0.000000 -1.000000
vn 0.000000 0.000000 -1.000000
vn 0.000000 0.000000 -1.000000
vn 0.000000 -1.000000 0.000000
vn 0.000000 -1.000000 0.000000
vn 0.000000 -1.000000 0.000000
vn 0.000000 -1.000000 0.000000
vn 1.000000 0.000000 0.000000
vn 1.000000 0.000000 0.000000
vn 1.000000 0.000000 0.000000
vn 1.000000 0.000000 0.000000
vn -1.000000 0.000000 0.000000
vn -1.000000 0.000000 0.000000
vn -1.000000 0.000000 0.000000
vn -1.000000 0.000000 0.000000
s off
g secondLeftColumn
usemtl initialShadingGroup
f 1/1/1 2/2/2 4/4/3 3/3/4
f 3/3/5 4/4/6 6/6/7 5/5/8
f 5/5/9 6/6/10 8/8/11 7/7/12
f 7/7/13 8/8/14 2/10/15 1/9/16
f 2/2/17 8/11/18 6/12/19 4/4/20
f 7/13/21 1/1/22 3/3/23 5/14/24
g default
v -7.999999 0.000000 0.500000
v -5.000001 0.000000 0.500000
v -7.999999 12.000000 0.500000
v -5.000001 12.000000 0.500000
v -7.999999 12.000000 -0.500000
v -5.000001 12.000000 -0.500000
v -7.999999 0.000000 -0.500000
v -5.000001 0.000000 -0.500000
vt 0.375000 0.000000
vt 0.625000 0.000000
vt 0.375000 0.250000
vt 0.625000 0.250000
vt 0.375000 0.500000
vt 0.625000 0.500000
vt 0.375000 0.750000
vt 0.625000 0.750000
vt 0.375000 1.000000
vt 0.625000 1.000000
vt 0.875000 0.000000
vt 0.875000 0.250000
vt 0.125000 0.000000
vt 0.125000 0.250000
vn 0.000000 0.000000 1.000000
vn 0.000000 0.000000 1.000000
vn 0.000000 0.000000 1.000000
vn 0.000000 0.000000 1.000000
vn 0.000000 1.000000 0.000000
vn 0.000000 1.000000 0.000000
vn 0.000000 1.000000 0.000000
vn 0.000000 1.000000 0.000000
vn 0.000000 0.000000 -1.000000
vn 0.000000 0.000000 -1.000000
vn 0.000000 0.000000 -1.000000
vn 0.000000 0.000000 -1.000000
vn 0.000000 -1.000000 0.000000
vn 0.000000 -1.000000 0.000000
vn 0.000000 -1.000000 0.000000
vn 0.000000 -1.000000 0.000000
vn 1.000000 0.000000 0.000000
vn 1.000000 0.000000 0.000000
vn 1.000000 0.000000 0.000000
vn 1.000000 0.000000 0.000000
vn -1.000000 0.000000 0.000000
vn -1.000000 0.000000 0.000000
vn -1.000000 0.000000 0.000000
vn -1.000000 0.000000 0.000000
s off
g firstLeftPanel
usemtl initialShadingGroup
f 9/15/25 10/16/26 12/18/27 11/17/28
f 11/17/29 12/18/30 14/20/31 13/19/32
f 13/19/33 14/20/34 16/22/35 15/21/36
f 15/21/37 16/22/38 10/24/39 9/23/40
f 10/16/41 16/25/42 14/26/43 12/18/44
f 15/27/45 9/15/46 11/17/47 13/28/48
g default
v -4.750000 0.000000 0.500000
v -2.750000 0.000000 0.500000
v -4.750000 12.000000 0.500000
v -2.750000 12.000000 0.500000
v -4.750000 12.000000 -0.500000
v -2.750000 12.000000 -0.500000
v -4.750000 0.000000 -0.500000
v -2.750000 0.000000 -0.500000
vt 0.375000 0.000000
vt 0.625000 0.000000
vt 0.375000 0.250000
vt 0.625000 0.250000
vt 0.375000 0.500000
vt 0.625000 0.500000
vt 0.375000 0.750000
vt 0.625000 0.750000
vt 0.375000 1.000000
vt 0.625000 1.000000
vt 0.875000 0.000000
vt 0.875000 0.250000
vt 0.125000 0.000000
vt 0.125000 0.250000
vn 0.000000 0.000000 1.000000
vn 0.000000 0.000000 1.000000
vn 0.000000 0.000000 1.000000
vn 0.000000 0.000000 1.000000
vn 0.000000 1.000000 0.000000
vn 0.000000 1.000000 0.000000
vn 0.000000 1.000000 0.000000
vn 0.000000 1.000000 0.000000
vn 0.000000 0.000000 -1.000000
vn 0.000000 0.000000 -1.000000
vn 0.000000 0.000000 -1.000000
vn 0.000000 0.000000 -1.000000
vn 0.000000 -1.000000 0.000000
vn 0.000000 -1.000000 0.000000
vn 0.000000 -1.000000 0.000000
vn 0.000000 -1.000000 0.000000
vn 1.000000 0.000000 0.000000
vn 1.000000 0.000000 0.000000
vn 1.000000 0.000000 0.000000
vn 1.000000 0.000000 0.000000
vn -1.000000 0.000000 0.000000
vn -1.000000 0.000000 0.000000
vn -1.000000 0.000000 0.000000
vn -1.000000 0.000000 0.000000
s off
g firstLeftColumn
usemtl initialShadingGroup
f 17/29/49 18/30/50 20/32/51 19/31/52
f 19/31/53 20/32/54 22/34/55 21/33/56
f 21/33/57 22/34/58 24/36/59 23/35/60
f 23/35/61 24/36/62 18/38/63 17/37/64
f 18/30/65 24/39/66 22/40/67 20/32/68
f 23/41/69 17/29/70 19/31/71 21/42/72
g default
v 2.389905 10.136556 -0.500000
v 2.142730 10.749999 -0.500000
v 1.749532 11.276776 -0.500000
v 1.237106 11.680985 -0.500000
v 0.640373 11.935082 -0.500000
v 0.000000 12.000000 -0.500000
v -0.640373 11.935082 -0.500000
v -1.237106 11.680987 -0.500000
v -1.749532 11.276776 -0.500000
v -2.142731 10.749999 -0.500000
v -2.389905 10.136556 -0.500000
v -2.500000 9.478247 -0.500000
v 2.500000 9.478247 -0.500000
v 2.389905 10.136556 0.500000
v 2.142730 10.749999 0.500000
v 1.749532 11.276776 0.500000
v 1.237106 11.680985 0.500000
v 0.640373 11.935082 0.500000
v 0.000000 12.000000 0.500000
v -0.640373 11.935082 0.500000
v -1.237106 11.680987 0.500000
v -1.749532 11.276776 0.500000
v -2.142731 10.749999 0.500000
v -2.389905 10.136556 0.500000
v -2.500000 9.478247 0.500000
v 2.500000 9.478247 0.500000
v 0.000000 9.478247 -0.500000
v 0.000000 9.478247 0.500000
v -2.500000 0.000000 0.500000
v 0.000000 0.000000 0.500000
v 2.500000 0.000000 0.500000
v -2.500000 0.000000 -0.500000
v 0.000000 0.000000 -0.500000
v 2.500000 0.000000 -0.500000
vt 0.982963 0.903324
vt 0.933012 0.934783
vt 0.933012 0.934783
vt 0.982963 0.903324
vt 0.853553 0.961797
vt 0.853553 0.961797
vt 0.750000 0.982525
vt 0.750000 0.982525
vt 0.629410 0.995555
vt 0.629410 0.995555
vt 0.500000 1.000000
vt 0.500000 1.000000
vt 0.370591 0.995555
vt 0.370591 0.995555
vt 0.250000 0.982525
vt 0.250000 0.982525
vt 0.146447 0.961797
vt 0.146447 0.961797
vt 0.066987 0.934783
vt 0.066987 0.934783
vt 0.017037 0.903324
vt 0.017037 0.903324
vt 0.000000 0.869565
vt 0.000000 0.869565
vt 1.000000 0.869565
vt 1.000000 0.869565
vt 0.500000 0.869565
vt 0.500000 0.869565
vt 0.000000 0.000000
vt 0.500000 0.000000
vt 1.000000 0.000000
vt 0.500000 0.000000
vt 0.000000 0.000000
vt 1.000000 0.000000
vn 0.962732 0.270458 0.000000
vn 0.871903 0.489680 0.000000
vn 0.871903 0.489680 0.000000
vn 0.962732 0.270458 0.000000
vn 0.716803 0.697276 0.000000
vn 0.716803 0.697276 0.000000
vn 0.510392 0.859942 0.000000
vn 0.510392 0.859942 0.000000
vn 0.249703 0.968323 0.000000
vn 0.249703 0.968323 0.000000
vn -0.000000 1.000000 0.000000
vn -0.000000 1.000000 0.000000
vn -0.249701 0.968323 0.000000
vn -0.249701 0.968323 0.000000
vn -0.510391 0.859942 0.000000
vn -0.510391 0.859942 0.000000
vn -0.716803 0.697275 0.000000
vn -0.716803 0.697275 0.000000
vn -0.871902 0.489680 0.000000
vn -0.871902 0.489680 0.000000
vn -0.962732 0.270457 0.000000
vn -0.962732 0.270457 0.000000
vn -0.986302 0.164948 0.000000
vn -0.986302 0.164948 0.000000
vn 0.986302 0.164948 0.000000
vn 0.986302 0.164948 0.000000
vn 0.000000 0.000000 -1.000000
vn 0.000000 0.000000 -1.000000
vn 0.000000 0.000000 -1.000000
vn 0.000000 0.000000 -1.000000
vn 0.000000 0.000000 -1.000000
vn 0.000000 0.000000 -1.000000
vn 0.000000 0.000000 -1.000000
vn 0.000000 0.000000 -1.000000
vn 0.000000 0.000000 -1.000000
vn 0.000000 0.000000 -1.000000
vn 0.000000 0.000000 -1.000000
vn 0.000000 0.000000 -1.000000
vn 0.000000 0.000000 -1.000000
vn 0.000000 0.000000 -1.000000
vn 0.000000 0.000000 1.000000
vn 0.000000 0.000000 1.000000
vn 0.000000 0.000000 1.000000
vn 0.000000 0.000000 1.000000
vn 0.000000 0.000000 1.000000
vn 0.000000 0.000000 1.000000
vn 0.000000 0.000000 1.000000
vn 0.000000 0.000000 1.000000
vn 0.000000 0.000000 1.000000
vn 0.000000 0.000000 1.000000
vn 0.000000 0.000000 1.000000
vn 0.000000 0.000000 1.000000
vn 0.000000 0.000000 1.000000
vn 0.000000 0.000000 1.000000
vn 0.000000 0.000000 1.000000
vn 0.000000 0.000000 1.000000
vn 0.000000 0.000000 1.000000
vn 0.000000 0.000000 1.000000
vn 0.000000 0.000000 1.000000
vn 0.000000 0.000000 1.000000
vn 0.000000 1.000000 0.000000
vn 0.000000 1.000000 0.000000
vn 0.000000 1.000000 0.000000
vn 0.000000 1.000000 0.000000
vn 0.000000 1.000000 0.000000
vn 0.000000 1.000000 0.000000
vn 0.000000 0.000000 -1.000000
vn 0.000000 0.000000 -1.000000
vn 0.000000 0.000000 -1.000000
vn 0.000000 0.000000 -1.000000
vn 0.000000 0.000000 -1.000000
vn 0.000000 0.000000 -1.000000
vn 0.000000 -1.000000 0.000000
vn 0.000000 -1.000000 0.000000
vn 0.000000 -1.000000 0.000000
vn 0.000000 -1.000000 0.000000
vn 0.000000 -1.000000 0.000000
vn 0.000000 -1.000000 0.000000
vn 1.000000 0.000000 0.000000
vn 1.000000 0.000000 0.000000
vn 1.000000 0.000000 0.000000
vn 1.000000 0.000000 0.000000
vn -1.000000 0.000000 0.000000
vn -1.000000 0.000000 0.000000
vn -1.000000 0.000000 0.000000
vn -1.000000 0.000000 0.000000
s 1
g centerArch
usemtl initialShadingGroup
f 25/43/73 26/44/74 39/45/75 38/46/76
f 26/44/74 27/47/77 40/48/78 39/45/75
f 27/47/77 28/49/79 41/50/80 40/48/78
f 28/49/79 29/51/81 42/52/82 41/50/80
f 29/51/81 30/53/83 43/54/84 42/52/82
f 30/53/83 31/55/85 44/56/86 43/54/84
f 31/55/85 32/57/87 45/58/88 44/56/86
f 32/57/87 33/59/89 46/60/90 45/58/88
f 33/59/89 34/61/91 47/62/92 46/60/90
f 34/61/91 35/63/93 48/64/94 47/62/92
f 35/63/93 36/65/95 49/66/96 48/64/94
f 37/67/97 25/43/73 38/46/76 50/68/98
s 2
f 26/44/99 25/43/100 51/69/101
f 27/47/102 26/44/99 51/69/101
f 28/49/103 27/47/102 51/69/101
f 29/51/104 28/49/103 51/69/101
f 30/53/105 29/51/104 51/69/101
f 31/55/106 30/53/105 51/69/101
f 32/57/107 31/55/106 51/69/101
f 33/59/108 32/57/107 51/69/101
f 34/61/109 33/59/108 51/69/101
f 35/63/110 34/61/109 51/69/101
f 36/65/111 35/63/110 51/69/101
f 25/43/100 37/67/112 51/69/101
s 3
f 38/46/113 39/45/114 52/70/115
f 39/45/114 40/48/116 52/70/115
f 40/48/116 41/50/117 52/70/115
f 41/50/117 42/52/118 52/70/115
f 42/52/118 43/54/119 52/70/115
f 43/54/119 44/56/120 52/70/115
f 44/56/120 45/58/121 52/70/115
f 45/58/121 46/60/122 52/70/115
f 46/60/122 47/62/123 52/70/115
f 47/62/123 48/64/124 52/70/115
f 48/64/124 49/66/125 52/70/115
f 50/68/126 38/46/113 52/70/115
s 4
f 53/71/127 54/72/128 52/70/129 49/66/130
f 54/72/128 55/73/131 50/68/132 52/70/129
s 5
f 49/66/133 52/70/134 51/69/135 36/65/136
f 52/70/134 50/68/137 37/67/138 51/69/135
s 6
f 36/65/139 51/69/140 57/74/141 56/75/142
f 51/69/140 37/67/143 58/76/144 57/74/141
s 7
f 56/75/145 57/74/146 54/72/147 53/71/148
f 57/74/146 58/76/149 55/73/150 54/72/147
s off
f 55/73/151 58/76/152 37/67/153 50/68/154
f 56/75/155 53/71/156 49/66/157 36/65/158
g default
v 2.750000 0.000000 0.500000
v 4.750000 0.000000 0.500000
v 2.750000 12.000000 0.500000
v 4.750000 12.000000 0.500000
v 2.750000 12.000000 -0.500000
v 4.750000 12.000000 -0.500000
v 2.750000 0.000000 -0.500000
v 4.750000 0.000000 -0.500000
vt 0.375000 0.000000
vt 0.625000 0.000000
vt 0.375000 0.250000
vt 0.625000 0.250000
vt 0.375000 0.500000
vt 0.625000 0.500000
vt 0.375000 0.750000
vt 0.625000 0.750000
vt 0.375000 1.000000
vt 0.625000 1.000000
vt 0.875000 0.000000
vt 0.875000 0.250000
vt 0.125000 0.000000
vt 0.125000 0.250000
vn 0.000000 0.000000 1.000000
vn 0.000000 0.000000 1.000000
vn 0.000000 0.000000 1.000000
vn 0.000000 0.000000 1.000000
vn 0.000000 1.000000 0.000000
vn 0.000000 1.000000 0.000000
vn 0.000000 1.000000 0.000000
vn 0.000000 1.000000 0.000000
vn 0.000000 0.000000 -1.000000
vn 0.000000 0.000000 -1.000000
vn 0.000000 0.000000 -1.000000
vn 0.000000 0.000000 -1.000000
vn 0.000000 -1.000000 0.000000
vn 0.000000 -1.000000 0.000000
vn 0.000000 -1.000000 0.000000
vn 0.000000 -1.000000 0.000000
vn 1.000000 0.000000 0.000000
vn 1.000000 0.000000 0.000000
vn 1.000000 0.000000 0.000000
vn 1.000000 0.000000 0.000000
vn -1.000000 0.000000 0.000000
vn -1.000000 0.000000 0.000000
vn -1.000000 0.000000 0.000000
vn -1.000000 0.000000 0.000000
s off
g firstRightColumn
usemtl initialShadingGroup
f 59/77/159 60/78/160 62/80/161 61/79/162
f 61/79/163 62/80/164 64/82/165 63/81/166
f 63/81/167 64/82/168 66/84/169 65/83/170
f 65/83/171 66/84/172 60/86/173 59/85/174
f 60/78/175 66/87/176 64/88/177 62/80/178
f 65/89/179 59/77/180 61/79/181 63/90/182
g default
v 5.000001 0.000000 0.500000
v 7.999999 0.000000 0.500000
v 5.000001 12.000000 0.500000
v 7.999999 12.000000 0.500000
v 5.000001 12.000000 -0.500000
v 7.999999 12.000000 -0.500000
v 5.000001 0.000000 -0.500000
v 7.999999 0.000000 -0.500000
vt 0.375000 0.000000
vt 0.625000 0.000000
vt 0.375000 0.250000
vt 0.625000 0.250000
vt 0.375000 0.500000
vt 0.625000 0.500000
vt 0.375000 0.750000
vt 0.625000 0.750000
vt 0.375000 1.000000
vt 0.625000 1.000000
vt 0.875000 0.000000
vt 0.875000 0.250000
vt 0.125000 0.000000
vt 0.125000 0.250000
vn 0.000000 0.000000 1.000000
vn 0.000000 0.000000 1.000000
vn 0.000000 0.000000 1.000000
vn 0.000000 0.000000 1.000000
vn 0.000000 1.000000 0.000000
vn 0.000000 1.000000 0.000000
vn 0.000000 1.000000 0.000000
vn 0.000000 1.000000 0.000000
vn 0.000000 0.000000 -1.000000
vn 0.000000 0.000000 -1.000000
vn 0.000000 0.000000 -1.000000
vn 0.000000 0.000000 -1.000000
vn 0.000000 -1.000000 0.000000
vn 0.000000 -1.000000 0.000000
vn 0.000000 -1.000000 0.000000
vn 0.000000 -1.000000 0.000000
vn 1.000000 0.000000 0.000000
vn 1.000000 0.000000 0.000000
vn 1.000000 0.000000 0.000000
vn 1.000000 0.000000 0.000000
vn -1.000000 0.000000 0.000000
vn -1.000000 0.000000 0.000000
vn -1.000000 0.000000 0.000000
vn -1.000000 0.000000 0.000000
s off
g firstRightPanel
usemtl initialShadingGroup
f 67/91/183 68/92/184 70/94/185 69/93/186
f 69/93/187 70/94/188 72/96/189 71/95/190
f 71/95/191 72/96/192 74/98/193 73/97/194
f 73/97/195 74/98/196 68/100/197 67/99/198
f 68/92/199 74/101/200 72/102/201 70/94/202
f 73/103/203 67/91/204 69/93/205 71/104/206
g default
v 8.250000 0.000000 0.500000
v 10.250000 0.000000 0.500000
v 8.250000 12.000000 0.500000
v 10.250000 12.000000 0.500000
v 8.250000 12.000000 -0.500000
v 10.250000 12.000000 -0.500000
v 8.250000 0.000000 -0.500000
v 10.250000 0.000000 -0.500000
vt 0.375000 0.000000
vt 0.625000 0.000000
vt 0.375000 0.250000
vt 0.625000 0.250000
vt 0.375000 0.500000
vt 0.625000 0.500000
vt 0.375000 0.750000
vt 0.625000 0.750000
vt 0.375000 1.000000
vt 0.625000 1.000000
vt 0.875000 0.000000
vt 0.875000 0.250000
vt 0.125000 0.000000
vt 0.125000 0.250000
vn 0.000000 0.000000 1.000000
vn 0.000000 0.000000 1.000000
vn 0.000000 0.000000 1.000000
vn 0.000000 0.000000 1.000000
vn 0.000000 1.000000 0.000000
vn 0.000000 1.000000 0.000000
vn 0.000000 1.000000 0.000000
vn 0.000000 1.000000 0.000000
vn 0.000000 0.000000 -1.000000
vn 0.000000 0.000000 -1.000000
vn 0.000000 0.000000 -1.000000
vn 0.000000 0.000000 -1.000000
vn 0.000000 -1.000000 0.000000
vn 0.000000 -1.000000 0.000000
vn 0.000000 -1.000000 0.000000
vn 0.000000 -1.000000 0.000000
vn 1.000000 0.000000 0.000000
vn 1.000000 0.000000 0.000000
vn 1.000000 0.000000 0.000000
vn 1.000000 0.000000 0.000000
vn -1.000000 0.000000 0.000000
vn -1.000000 0.000000 0.000000
vn -1.000000 0.000000 0.000000
vn -1.000000 0.000000 0.000000
s off
g secondRightColumn
usemtl initialShadingGroup
f 75/105/207 76/106/208 78/108/209 77/107/210
f 77/107/211 78/108/212 80/110/213 79/109/214
f 79/109/215 80/110/216 82/112/217 81/111/218
f 81/111/219 82/112/220 76/114/221 75/113/222
f 76/106/223 82/115/224 80/116/225 78/108/226
f 81/117/227 75/105/228 77/107/229 79/118/230
